<svg xmlns="http://www.w3.org/2000/svg" viewBox="0 0 24 24" fill="#6b6b6b"><path d="M12 2.2c3.2 0 3.58.01 4.85.07 1.17.05 1.8.25 2.23.41.56.22.96.48 1.38.9.42.42.68.82.9 1.38.16.42.36 1.06.41 2.23.06 1.27.07 1.65.07 4.85s-.01 3.58-.07 4.85c-.05 1.17-.25 1.8-.41 2.23-.22.56-.48.96-.9 1.38-.42.42-.82.68-1.38.9-.42.16-1.06.36-2.23.41-1.27.06-1.65.07-4.85.07s-3.58-.01-4.85-.07c-1.17-.05-1.8-.25-2.23-.41-.56-.22-.96-.48-1.38-.9-.42-.42-.68-.82-.9-1.38-.16-.42-.36-1.06-.41-2.23C2.21 15.58 2.2 15.2 2.2 12s.01-3.58.07-4.85c.05-1.17.25-1.8.41-2.23.22-.56.48-.96.9-1.38.42-.42.82-.68 1.38-.9.42-.16 1.06-.36 2.23-.41C8.42 2.21 8.8 2.2 12 2.2zm0 1.62c-3.14 0-3.51.01-4.75.07-.9.04-1.39.19-1.71.32-.43.17-.74.37-1.06.69-.32.32-.52.63-.69 1.06-.13.32-.28.81-.32 1.71-.06 1.24-.07 1.61-.07 4.75s.01 3.51.07 4.75c.04.9.19 1.39.32 1.71.17.43.37.74.69 1.06.32.32.63.52 1.06.69.32.13.81.28 1.71.32 1.24.06 1.61.07 4.75.07s3.51-.01 4.75-.07c.9-.04 1.39-.19 1.71-.32.43-.17.74-.37 1.06-.69.32-.32.52-.63.69-1.06.13-.32.28-.81.32-1.71.06-1.24.07-1.61.07-4.75s-.01-3.51-.07-4.75c-.04-.9-.19-1.39-.32-1.71-.17-.43-.37-.74-.69-1.06-.32-.32-.63-.52-1.06-.69-.32-.13-.81-.28-1.71-.32-1.24-.06-1.61-.07-4.75-.07zm0 2.76a5.42 5.42 0 110 10.84 5.42 5.42 0 010-10.84zm0 1.62a3.8 3.8 0 100 7.6 3.8 3.8 0 000-7.6zm5.6-.94a1.27 1.27 0 110 2.54 1.27 1.27 0 010-2.54z"/></svg>
